<svg width="34" height="34" viewBox="0 0 34 34" fill="none" xmlns="http://www.w3.org/2000/svg">
<circle cx="17" cy="17" r="17" fill="#E5F3E7"/>
<path fill-rule="evenodd" clip-rule="evenodd" d="M16.5 9C13.875 9 13 10.79 13 13V15H11V19.375C11 22.484 12.37 25 16.5 25C20.63 25 22 22.484 22 19.375V15H20V13C20 10.79 19.125 9 16.5 9ZM19 13V15H14V13C14 10.341 15.336 10 16.5 10C17.664 10 19 10.341 19 13ZM19.125 16H20H21V19.375C21 22.53 19.57 24 16.5 24C13.43 24 12 22.53 12 19.375V16H13H13.875H19.125ZM17 18V21H16V18H17Z" fill="#018A16"/>
</svg>
