<svg width="26" height="26" xmlns="http://www.w3.org/2000/svg" viewBox="0 0 26 26">
    <g transform="translate(-11 -11)" fill="#fff" fill-rule="evenodd">
        <path
            d="M19.185 26.924a9.591 9.591 0 001.633 1.668l.31.239-7.964 7.919-1.925-1.925 7.946-7.901zM28.25 11.25c4.693 0 8.5 3.807 8.5 8.5s-3.807 8.5-8.5 8.5a8.501 8.501 0 01-8.5-8.5c0-4.693 3.807-8.5 8.5-8.5zm0 1.417a7.091 7.091 0 00-7.083 7.083 7.091 7.091 0 007.083 7.083 7.091 7.091 0 007.083-7.083 7.091 7.091 0 00-7.083-7.083zM29 16v3.5h3.5v1H29V24h-1v-3.5h-3.5v-1H28V16h1z" />
    </g>
</svg>
