<?xml version="1.0" encoding="UTF-8"?>
<svg id="Layer_1" data-name="Layer 1" xmlns="http://www.w3.org/2000/svg" xmlns:xlink="http://www.w3.org/1999/xlink" viewBox="0 0 284.11 91.95">
  <defs>
    <style>
      .cls-1 {
        fill: url(#linear-gradient);
      }

      .cls-2 {
        mask: url(#mask);
      }

      .cls-3 {
        fill: #3f3f3f;
        font-family: PorscheNext-Bold, 'Porsche Next';
        font-size: 61.5px;
      }

      .cls-4 {
        letter-spacing: 0em;
      }

      .cls-5 {
        fill: url(#linear-gradient-2);
      }

      .cls-6 {
        fill: #613e18;
      }

      .cls-6, .cls-7, .cls-8, .cls-9, .cls-10 {
        fill-rule: evenodd;
      }

      .cls-7 {
        fill: #432918;
      }

      .cls-8 {
        fill: #b12b28;
      }

      .cls-9 {
        fill: url(#linear-gradient-3);
      }

      .cls-11 {
        letter-spacing: 0em;
      }

      .cls-12 {
        letter-spacing: 0em;
      }
    </style>
    <linearGradient id="linear-gradient" x1="-115.17" y1="300.4" x2="-114.29" y2="300.4" gradientTransform="translate(9319.95 31054.49) scale(80.92 -103.23)" gradientUnits="userSpaceOnUse">
      <stop offset="0" stop-color="#e1be78"/>
      <stop offset="1" stop-color="#e3ab36"/>
    </linearGradient>
    <linearGradient id="linear-gradient-2" x1="-115.03" y1="300.71" x2="-114.45" y2="300.3" gradientTransform="translate(9344.92 31114.98) scale(81.14 -103.43)" gradientUnits="userSpaceOnUse">
      <stop offset="0" stop-color="#e1be78"/>
      <stop offset=".34" stop-color="#fffad1"/>
      <stop offset=".75" stop-color="#c69632"/>
      <stop offset=".99" stop-color="#fcdc99"/>
    </linearGradient>
    <mask id="mask" x="-121.84" y="-31.04" width="66.39" height="13.13" maskUnits="userSpaceOnUse"/>
    <linearGradient id="linear-gradient-3" x1="-115.2" y1="290.41" x2="-114.32" y2="290.41" gradientTransform="translate(8645.05 4317.89) scale(75.02 -14.84)" gradientUnits="userSpaceOnUse">
      <stop offset="0" stop-color="#ffe2a8"/>
      <stop offset="1" stop-color="#d1a149"/>
    </linearGradient>
  </defs>
  <g>
    <path class="cls-1" d="M71.44,6.63c-3.71-1.48-7.52-2.71-11.39-3.69-5.35-1.28-10.79-2.15-16.28-2.6C41.09,.11,38.66,0,35.91,0h-.23C32.97,0,30.54,.11,27.85,.34c-5.47,.45-10.89,1.32-16.22,2.6C7.75,3.93,3.94,5.16,.23,6.63L0,6.72s.45,27.57,.8,41.22c.09,4.02,.83,8,2.18,11.79,1.57,4.31,3.66,8.42,6.22,12.23,2.66,3.93,5.89,7.46,9.57,10.47,1.45,1.21,2.98,2.32,4.57,3.33,2.5,1.5,5.11,2.81,7.8,3.92,.9,.38,1.66,.73,2.39,.96,.73,.28,1.49,.52,2.25,.7,.77-.19,1.52-.42,2.26-.7,.71-.24,1.48-.59,2.39-.96,2.7-1.11,5.31-2.42,7.82-3.92,1.59-1.01,3.12-2.12,4.57-3.33,3.68-3.01,6.91-6.54,9.57-10.47,2.56-3.81,4.65-7.92,6.21-12.23,1.36-3.79,2.09-7.77,2.18-11.79,.35-13.65,.8-41.19,.8-41.19-.05-.04-.11-.08-.17-.11Z"/>
    <path class="cls-6" d="M69.8,56.38c-.28,1.3-.64,2.57-1.08,3.82-1.56,4.34-3.65,8.48-6.21,12.32-2.67,3.94-5.9,7.48-9.59,10.49-1.45,1.21-2.98,2.32-4.58,3.34-2.5,1.5-5.12,2.82-7.82,3.93-.91,.37-1.68,.73-2.4,.96-.73,.29-1.49,.52-2.25,.7-.77-.17-1.53-.4-2.27-.7-.72-.25-1.51-.58-2.4-.96-2.6-1.13-5.12-2.45-7.54-3.93-1.62-1.01-3.17-2.13-4.65-3.34-3.15-2.61-5.96-5.73-8.39-9.02,.66,.87,.51,.43,1.23,1.25,1.89,2.17,4.8,5.35,7.03,7.18,1.45,1.21,2.98,2.26,4.58,3.27,2.51,1.51,5.01,3.01,7.71,4.12,.91,.37,1.69,.73,2.4,.96,.76,.28,1.54,.52,2.34,.7,.77-.19,1.52-.42,2.25-.7,.72-.24,1.5-.6,2.4-.96,2.7-1.12,5.32-2.43,7.82-3.94,1.6-1,3.13-2.12,4.58-3.34,3.69-3.01,6.6-6.66,9.27-10.6l.28,.11c2.57-3.82,4.66-7.94,6.22-12.26,0,0,.61-1.68,1.07-3.42Zm-.25-8.2c.02,.15,.02,.29,0,.44h-19.6v-.44h19.6ZM35.01,11.09v.5c-2.31,.04-4.45,.12-6.79,.32-5.29,.43-10.53,1.27-15.68,2.51-3.73,.96-7.39,2.16-10.97,3.57v-.49c3.58-1.43,7.25-2.62,10.98-3.57,5.15-1.24,10.39-2.08,15.67-2.53,2.34-.2,4.47-.32,6.79-.32Zm35.46-3.3s-.06,3.59-.16,8.77l-.04-.12c.11-3.95,.13-6.82,.13-7.84v-.15s0-.04,0-.06v-.6h.06ZM35.97,1.19c2.59,0,4.93,.12,7.52,.36,5.31,.44,10.58,1.3,15.76,2.56,3.74,.94,7.42,2.14,11,3.57h-.06l.22,.1v.49l-.22-.11c-3.58-1.43-7.25-2.63-11-3.57-5.14-1.25-10.38-2.1-15.66-2.54-2.6-.24-4.94-.35-7.55-.35h-.24c-2.61,.04-4.95,.12-7.55,.35-5.31,.45-10.58,1.31-15.76,2.57-3.71,.94-7.36,2.14-10.91,3.57l-.16,.07v-.52l.22-.08c3.55-1.44,7.2-2.63,10.91-3.57,5.16-1.26,10.4-2.11,15.7-2.55,2.6-.24,4.94-.35,7.55-.35h.24Z"/>
    <path class="cls-8" d="M35.95,20.08v9.01h34.42c.08-4.24,.13-7.25,.16-9.01H35.95Zm13.86,18.26l-.08,9.23h20.13c.06-2.55,.13-6.05,.19-9.23h-20.24Zm-14.81,23.44c-.95-.09-2.65-.59-5.11-1.51-1.72-.64-3.48-2.15-3.62-2.28H3.78c.15,.49,1.89,5.86,3.55,8.42h27.71l-.04-4.63Zm-20.85,14.71c1.52,1.66,3.7,4.41,5.43,5.84,1.4,1.18,2.88,2.27,4.42,3.26,2.42,1.47,4.94,2.76,7.55,3.85,.86,.37,1.61,.72,2.3,.95,.49,.17,.94,.33,1.32,.45l.22-14.36H14.15Z"/>
    <path class="cls-10" d="M35.38,67.06v9.06l-21.67,.43c-1.25-1.44-2.41-2.96-3.46-4.55-.84-1.29-2.09-3.64-2.82-4.94h27.94Zm-13.01-18.75c1.05,4.52,2.25,7.51,3.61,8.98l-22.5,.26c-.76-2.75-1.47-6.39-1.58-9.24H22.36Zm47.89-18.52c-.05,2.49-.1,5.56-.13,7.98h-20.39v-7.98h20.53ZM36.03,10.93c1.41,.02,6.9,.45,12.38,1.04l.86,.1c4.03,.45,7.92,.98,10.05,1.5,3.75,.96,7.51,2.81,11.1,4.25h0s0,.23,0,.23c0,.44,.02,.94,.02,1.32v.21H36.05l-.03-8.64Z"/>
    <path class="cls-7" d="M60.39,63.52v.18c0,.13,0,.17-.12,.2-.82,.19-1.56,.61-2.16,1.19-.05,.03-.09,.07-.12,.12s0,0,0-.07,0-.2,.2-.33c.6-.55,1.35-.93,2.15-1.1,.07,0,.1,0,.11-.08l-.06-.11Zm-3.93-2.26c-.66,.26-1.24,.67-1.71,1.19-.34,.33-.59,.74-.73,1.19v.15c.17-.38,.4-.73,.68-1.02,.46-.52,1.03-.93,1.68-1.19,.06-.02,.1-.07,.11-.13v-.31s-.04,.08-.08,.08l.06,.04Zm-4.15-.94c-.89,.54-1.62,1.31-2.11,2.23-.25,.48-.38,1.01-.38,1.55v.13c.03-.49,.14-.98,.35-1.43,.49-.89,1.25-1.6,2.17-2.04,.07-.2,.11-.41,.1-.62,0,.09-.05,.17-.12,.21v-.04Zm-5.48,1.19c-.34,.28-.62,.62-.84,1-.49,.82-.69,1.78-.58,2.73,0-.84,.22-1.66,.64-2.38,.18-.38,.44-.71,.76-.99,.07-.16,.11-.34,.1-.51,0,.05-.03,.1-.07,.12v.04Zm-8.71,7.15v-.07c-.37-.29-.6-.72-.64-1.19-.07,.5,.11,1,.48,1.33,.04-.04,.09-.07,.14-.08h.01Zm18.24-17.42c-.56,.24-1.05,.62-1.41,1.11-.39,.41-.67,.91-.82,1.45v.15c.19-.47,.46-.89,.8-1.26,.37-.49,.86-.88,1.43-1.12,.13-.07,.16-.21,.16-.52,0,.09-.07,.17-.16,.19Zm5.42,.89c-.69,.12-1.33,.4-1.88,.82-.5,.34-.91,.8-1.2,1.32,0,0-.1,.13,0,.18,.29-.43,.66-.81,1.08-1.12,.56-.45,1.21-.76,1.92-.91,.07,0,.11-.11,.12-.14v-.29s0,.08-.07,.08l.04,.05Zm4.03,2.68s0,.1-.08,.08c-.77,.02-1.51,.29-2.11,.76-.16,.11-.31,.23-.44,.37-.11,.07-.08,.14-.07,.15l.12,.11,.34-.29c.62-.49,1.37-.78,2.16-.82,.06,0,.11-.21,.1-.39v.02Zm-24.05,6.8v.07c-.03,.41-.33,.76-.73,.86-.49,.22-1.07,.11-1.45-.27-.29,.36-.75,.52-1.2,.42-.36-.08-.67-.3-.86-.61,0-.17-.1-.33-.12-.38-.4,0-.8,.07-1.2,.07v.36c.4,0,.8-.03,1.2-.08,.02,.13,.06,.26,.11,.38,.19,.29,.48,.5,.82,.58,.44,.1,.91-.05,1.2-.41,.4,.37,.98,.48,1.49,.27,.37-.12,.64-.45,.67-.83v-.43h.08Zm1.02,10.32c-.53,.31-1.19,.31-1.71,0-.23-.15-.42-.34-.58-.57,0,0-.08-.08-.1-.07-.37,.33-.86,.49-1.35,.44-.53-.05-1.02-.32-1.33-.75-.23-.33-.35-.71-.35-1.11-.04,.49,.1,.98,.38,1.38,.26,.42,.7,.71,1.2,.77,.51,.04,1.02-.14,1.39-.49,0,0,.07,0,.1,.08,.17,.22,.36,.41,.58,.58,.52,.3,1.17,.3,1.69,0,.53-.37,.85-.96,.88-1.6-.03,.53-.34,1.01-.82,1.26l.02,.06Zm12.53,2.56c-.4,.13-.78,.31-1.14,.54-.53,.38-.94,.9-1.2,1.5h.06c.24-.52,.61-.97,1.07-1.31,.35-.23,.73-.41,1.13-.55,0,0,.07-.21,.07-.33v.15Zm-2.85-1.67c-1.2,.29-2.21,1.12-2.71,2.24v.11h.08c.56-.96,1.47-1.67,2.54-1.98,0,0,.07-.21,.07-.37h.01Zm-4.96-.41c-.47,.46-.87,.99-1.2,1.56-.24,.46-.33,.99-.26,1.5l.06,.07c-.03-.42,.07-.83,.28-1.19,.33-.56,.73-1.07,1.2-1.51,.04-.15,.06-.32,.06-.48v.08l-.13-.04Zm-4.3,1.73c-.55,.55-.79,1.35-.62,2.11-.07-.66,.16-1.31,.62-1.79,.02-.14,.02-.28,0-.42,.01,.03,.01,.06,0,.1Zm-2.23,4.25l.11-.08c.07,0,0-.1,0-.11-.17-.31-.3-.65-.37-1-.07-.29-.11-.59-.12-.89,0,.4,.03,.8,.12,1.19,.07,.32,.18,.64,.32,.94l-.06-.05Zm2.16,4.16c-.33,.29-.79,.38-1.2,.24-.41-.14-.76-.41-1.01-.76h-.12c-.27,.57-.77,1-1.37,1.19-.4,.06-.81-.06-1.12-.33-.27-.23-.43-.57-.42-.93,0,.98,.12,1.04,.42,1.19,.33,.28,.77,.4,1.2,.33,.6-.19,1.1-.62,1.37-1.19h.12c.24,.36,.6,.62,1.01,.76,.42,.14,.88,.05,1.2-.25,.34-.35,.51-.83,.48-1.31-.04,.39-.23,.75-.53,1l-.04,.06Zm-4.63-1.86l.18-.15v-.07c-.53-.17-.91-.64-.97-1.19-.01,.6,.3,1.15,.82,1.45l-.02-.04ZM3.47,24.69s.05-.12,0-.17c-.1-.2-.15-.41-.17-.63,.01,.27,.06,.53,.13,.79h.04Zm1.08,18.92s.08-.13,0-.18c-.12-.17-.22-.35-.31-.54-.05-.14-.08-.29-.08-.44,0,.27,.04,.54,.11,.8,.07,.16,.17,.3,.29,.43v-.07Zm5.05,1.55c-.02,.42-.27,.79-.66,.96-.4,.27-.9,.36-1.37,.24-.32-.11-.61-.3-.84-.55-.08-.11-.19,0-.3,.06-.28,.18-.57,.33-.88,.46-.6,.3-1.33,.11-1.7-.44-.19-.25-.3-.55-.31-.87-.02,.42,.09,.83,.3,1.19,.39,.55,1.12,.75,1.74,.48,.31-.13,.6-.29,.89-.46,.1-.07,.17-.2,.26-.1,.24,.26,.54,.46,.88,.58,.46,.13,.96,.05,1.35-.23,.45-.23,.7-.72,.64-1.22v-.12Zm-1.37-9.33c-.02,.46-.27,.88-.67,1.11-.67,.42-1.55,.22-1.97-.44-.08-.06-.19-.06-.28,0-.42,.29-.92,.43-1.43,.42-.5-.03-.94-.34-1.13-.81-.07-.13-.11-.28-.12-.43-.02,.23,.02,.46,.1,.68,.17,.49,.61,.83,1.13,.88,.52,.01,1.03-.13,1.46-.42,.03-.03,.07-.05,.11-.05s.08,.02,.11,.05c.39,.72,1.29,.99,2.01,.61,.5-.33,.71-.64,.68-1.57l-.02-.02Zm-4.48-1.77h.07v-.17c-.22-.23-.35-.53-.36-.85,0,.36,.1,.72,.29,1.02h0Zm7.19,2.37c-.51,.52-.86,1.17-1.03,1.88-.09,.5-.09,1.02,0,1.52-.06-.4-.06-.8,0-1.19,.17-.69,.5-1.32,.98-1.85v-.48s0,.06,0,.08l.05,.02Zm4.51-1.48c-1.38,.8-2.12,2.36-1.86,3.93-.13-1.45,.6-2.84,1.87-3.57v-.49s-.03,.08-.06,.1l.05,.04Zm2.28,2.72s.1,.12,.13,.12h.13c.52-1.3,1.41-2.42,2.55-3.24v-.5c0,.05-.03,.1-.07,.12-1.29,.84-2.27,2.07-2.81,3.5h.06Zm-6.5-10.15c-.39,.21-.72,.53-.94,.92-.5,.75-.7,1.65-.56,2.54-.01,.05-.01,.1,0,.15-.05-.81,.17-1.61,.61-2.29,.19-.37,.49-.68,.85-.88v-.48l.04,.04Zm4.8-1.26c-.52,.27-.98,.65-1.33,1.12-.44,.59-.75,1.27-.91,1.99,0,.1,.06,.19,.14,.24,.18-.65,.48-1.25,.89-1.79,.31-.48,.72-.89,1.2-1.19,.11,0,.12-.15,.12-.27v-.27c0,.07-.06,.12-.14,.15l.04,.02Zm5.71-.13c-.72,.05-1.41,.29-2.01,.68-.67,.39-1.15,1.04-1.32,1.79,0,.1,.05,.19,.14,.23,.24-.66,.69-1.23,1.28-1.62,.57-.4,1.23-.65,1.93-.73,.1,0,.08-.14,.08-.24v-.3c0,.07-.04,.13-.11,.14v.05Zm2.25,2.68l.18-.12c.68-.44,1.44-.74,2.24-.88,.08,0,.12,0,.12-.23v-.18h-.07c-.99,.19-1.93,.59-2.75,1.19-.12,.12-.23,.19-.06,.2h.34Zm-11.56-11.67c-.74,.5-1.4,1.1-1.97,1.79-.45,.77-.66,1.65-.61,2.54h.1c.05-.75,.28-1.47,.67-2.11,.55-.68,1.19-1.3,1.88-1.83,.02-.18,.02-.37,0-.55,.02,.06,0,.12-.04,.17h-.04Zm6.27-1.43s0,.04,0,.06c-.68,.44-1.31,.93-1.91,1.48-.58,.63-.94,1.43-1.02,2.29,0,0,0,.06,.07,.06h.07c.17-.69,.5-1.32,.96-1.86,.55-.55,1.15-1.04,1.79-1.48v-.52l.04-.02Zm6.42-.36c-.96,.29-1.85,.79-2.6,1.44-.49,.57-.81,1.26-.92,2,0,0,.07,0,.11,.06,.18-.6,.49-1.14,.92-1.6,.75-.65,1.62-1.15,2.57-1.48,.07-.04,.11-.11,.11-.19v-.39c-.01,.07-.06,.13-.13,.15h-.05Zm5.47,2.54c-.78,0-1.55,.07-2.31,.21-.49,.17-.93,.45-1.28,.83-.04,.04-.04,.1,0,.14l.23,.06c.3-.26,.64-.47,1.02-.6,.76-.13,1.54-.19,2.31-.19,0,0,.13-.06,.13-.12v-.35h-.1ZM8.39,26.4c-.18,.56-.35,.62-.78,.93-.42,.27-.93,.36-1.41,.24-.3-.1-.57-.29-.77-.54-.03-.02-.07-.02-.11,0-.29,.2-.61,.36-.95,.48-.6,.24-1.29,.02-1.64-.52-.03-.04-.06-.08-.07-.13v-.26c0-.06,0-.11,0-.17v.11c-.02,.35,.04,.69,.18,1.01,.4,.53,1.09,.75,1.73,.55,.28-.21,.53-.44,.77-.69,.03-.02,.07-.02,.11,0,.21,.26,.49,.46,.8,.58,.48,.1,.99,0,1.4-.26,.26-.15,.47-.39,.59-.67,.12-.25,.16-.53,.12-.81v.08l.04,.07Zm21.56-3.23c-.08,.02-.17-.02-.22-.08-1.55-1.31-3.51-2.05-5.54-2.11-5.63,.13-11.15,1.53-16.15,4.1,0,0-.1,.13,0,.17,.07,.07,.13,.16,.18,.25,4.96-2.53,10.43-3.91,16.01-4.05,2.04,.07,3.99,.81,5.55,2.12,.06,.07,.15,.12,.24,.12,.08,0,.16-.18,.18-.26,.03-.33,.1-.43,.07-.76,0,.2-.21,.49-.32,.51Zm-7.95,8.47c-.57-.2-1.16-.33-1.76-.39-4.26,.1-8.42,1.26-12.11,3.36,0,0-.16,.14-.13,.2s.08,.23,.12,.33c.03-.04,.06-.07,.11-.1,3.68-2.1,7.82-3.25,12.06-3.36,.57,.05,1.13,.18,1.67,.38h.08v-.43h-.04Zm.1,8.34v.08h-.18c-2.19-.11-4.38,.15-6.49,.76-2.23,.67-4.37,1.61-6.37,2.79-.14,.08-.13,.07,0,.2,.04,.04,.07,.08,.1,.13,1.99-1.16,4.11-2.07,6.32-2.73,2.09-.59,4.27-.84,6.44-.71h.13l.05-.52Zm22.27,19.1c-.89,.62-1.85,1.14-2.85,1.56l.14,.25c.95-.39,1.86-.88,2.71-1.45h.1c1.43-.36,7.19-2.38,10.71-2.45,2.17-.05,4.32,.46,6.24,1.49,.98,.57,1.87,1.3,2.63,2.14,.03,.06,.08,.1,.14,.12,.06,0,.11-.03,.13-.08,.23-.59,.33-1.22,.31-1.86-.01,.51-.12,1.02-.31,1.5-.02,.05-.08,.08-.13,.08-.1,0-.11-.12-.14-.15-.76-.83-1.64-1.54-2.63-2.1-1.91-1.04-4.06-1.58-6.24-1.55-3.53,0-9.23,2.12-10.66,2.48h-.13v.02Zm14.98,10.27c-.13,.08-.29,.12-.44,.1-.45-.57-.97-1.08-1.53-1.54-.69-.58-1.52-.99-2.4-1.19-1.36-.27-2.75-.31-4.12-.11-2.65,.36-5.21,1.23-7.53,2.56-.12,.08-.18,.12-.13,.18,.05,.04,.09,.1,.12,.15,2.32-1.31,4.87-2.17,7.51-2.53,1.37-.22,2.77-.19,4.14,.08,.88,.2,1.71,.61,2.4,1.19,.57,.46,1.09,.97,1.56,1.52,.16,.02,.32-.01,.46-.1,.14-.31,.21-.64,.22-.98-.01,.22-.08,.44-.2,.63h-.02Zm-5.66,9.97h-.24c-.38-.39-.82-.73-1.29-1.01-1.22-.59-2.59-.81-3.93-.63-1.97,.31-3.83,1.13-5.38,2.38-.1,.07-.14,.19-.1,.23l.13,.11c1.56-1.24,3.41-2.06,5.38-2.38,1.34-.18,2.71,.04,3.93,.63,.48,.28,.91,.63,1.29,1.02,.08,.04,.16,.04,.24,0,.33-.3,.5-.75,.44-1.19-.03,.36-.2,.7-.48,.93v-.08Z"/>
    <path class="cls-5" d="M48.14,55.2l.32-.08,1.89-.42c.07,0,.13-.11,.14-.14,.24-.95,.64-1.85,1.2-2.66,.44-.59,1.07-1.01,1.79-1.19,.95-.38,2.02-.29,2.89,.24,.08,.08,.08,.21,0,.29l-.07,.07c-.56,.23-1.04,.6-1.4,1.08-.4,.41-.69,.91-.85,1.45v.17s1.03,0,1.4,.08c.07,0,.1,0,.14-.12,.31-1,.9-1.9,1.7-2.57,.85-.66,1.97-.85,3-.52,.64,.15,1.17,.59,1.44,1.19v.14c-.69,.13-1.34,.43-1.89,.86-.49,.33-.9,.77-1.2,1.29,0,0-.11,.14,.07,.19,.48,.11,.95,.24,1.41,.41h.22c.55-.83,1.41-1.41,2.4-1.6,1.44-.21,2.81,.41,3.03,1.36,0,.13,.07,.3,0,.29-.79,.04-1.54,.32-2.16,.81-.14,.1-.28,.2-.41,.32-.11,.08-.08,.14-.07,.15,.32,.32,1.39,1.1,1.47,2.18,.05,.67-.06,1.34-.31,1.97-.02,.05-.08,.08-.13,.08-.06-.02-.11-.06-.13-.12-.75-.85-1.64-1.57-2.63-2.13-1.91-1.08-4.07-1.64-6.26-1.62-3.6,0-9.29,2.1-10.72,2.45h-.08s.79-.81,3.79-3.9h0Zm9.14,7.15c-.75,.31-1.36,.87-1.74,1.58,0,0-.08,.19-.14,.14-.35,0-.94-.12-1.27-.14s-.1-.15-.1-.18c.14-.45,.4-.86,.74-1.19,.47-.53,1.06-.93,1.71-1.19,0,0,.07,0,.07-.08-.44-.53-1.09-.85-1.79-.87-.89-.05-1.77,.28-2.4,.91-.73,.77-1.19,1.77-1.29,2.82,0,.1-.07,.13-.13,.13-.36,.06-.72,.09-1.08,.1v-.13c.01-.54,.15-1.07,.4-1.55,.48-.92,1.21-1.68,2.1-2.22,.14-.1,.16-.3,.11-.32-1.09-.45-2.33-.33-3.31,.32-.65,.32-1.19,.83-1.55,1.47-.36,.95-.59,1.94-.66,2.95-.03,.06-.08,.11-.14,.13-.43,.08-.86,.19-1.28,.33-.04,0-.08-.04-.08-.08-.14-.96,.06-1.94,.56-2.78,.22-.38,.5-.72,.84-1,.03-.02,.04-.06,.04-.1s-.01-.07-.04-.1c-.02-.04-.06-.06-.11-.07-.86-.14-1.74,.01-2.49,.44-.95,.53-1.6,1.47-1.73,2.55-.09,.76-.04,1.53,.16,2.26,0,0,0,.1-.06,.12l-1.37,.68c-.14-.57-.51-1.06-1.02-1.36-.96-.42-2.08,0-2.54,.93-.27,.62-.07,1.35,.48,1.74,0,0,.07,.07,0,.1-.34,.19-.35,.23-.61,.62-.26,.56-.18,1.22,.2,1.7,.3,.43,.78,.71,1.31,.77,.5,.05,1-.12,1.38-.45,0,0,.07,0,.1,.07,.15,.23,.33,.43,.55,.58,.54,.3,1.2,.3,1.74,0,.57-.31,.89-.94,.8-1.58,0-.38-.15-.74-.42-1,0,0,0-.1,.13-.18,2.31-1.31,4.86-2.17,7.49-2.53,1.37-.21,2.77-.18,4.12,.08,.88,.2,1.71,.61,2.4,1.19,.57,.45,1.09,.96,1.56,1.52,.16,.03,.32,0,.46-.1,.27-.63,.27-1.34,0-1.97-.31-.85-.82-1.62-1.47-2.25v-.07c0-.07,.06-.18,.2-.3,.59-.59,1.34-1,2.16-1.19,.1,0,.14-.08,.07-.2-.61-1.09-1.93-1.58-3.11-1.13l.05,.05ZM71.8,6.74s-.46,27.6-.8,41.29c-.09,4.03-.82,8.02-2.18,11.82-1.57,4.32-3.66,8.43-6.22,12.25-2.67,3.94-5.9,7.47-9.59,10.49-1.45,1.21-2.98,2.32-4.58,3.34-2.51,1.51-5.12,2.82-7.83,3.93-.89,.38-1.68,.74-2.4,.98-.74,.28-1.5,.51-2.27,.69-.77-.18-1.52-.41-2.25-.69-.72-.24-1.49-.6-2.4-.98-2.7-1.11-5.31-2.43-7.82-3.93-1.6-1.01-3.13-2.12-4.58-3.34-3.69-3.02-6.92-6.55-9.59-10.49-2.57-3.82-4.66-7.93-6.24-12.25-1.37-3.8-2.13-7.79-2.24-11.82C.46,34.34,0,6.73,0,6.73l.23-.08c3.72-1.48,7.54-2.71,11.43-3.69C17.01,1.67,22.47,.8,27.96,.35c2.69-.24,5.12-.35,7.83-.35h.18c2.71,0,5.14,.11,7.84,.35,5.5,.45,10.95,1.32,16.31,2.61,3.88,.98,7.7,2.21,11.42,3.69l.22,.1h.05ZM3.45,57H25.28c-2.03-2.18-3.18-5.03-3.21-8.01v-.33H2.18c.12,2.82,.56,5.62,1.31,8.34h-.04Zm31.55,19.89H14.62c1.51,1.64,3.14,3.18,4.87,4.6,1.42,1.17,2.93,2.25,4.5,3.23,2.41,1.45,4.92,2.73,7.52,3.81,.86,.37,1.61,.71,2.29,.94l1.31,.44v-13.02h-.1Zm0-9.43H7.91c.72,1.3,1.49,2.57,2.33,3.85,1.05,1.58,2.21,3.09,3.45,4.51h21.34l-.04-8.36Zm0-5.68c-3.05-.27-5.95-1.46-8.3-3.41l-.43-.38H3.78c.14,.49,.31,.98,.48,1.45,.85,2.39,1.88,4.72,3.07,6.97h27.71l-.04-4.63Zm0-50.52c-2.3,0-4.44,.12-6.77,.32-5.29,.44-10.53,1.29-15.68,2.53-3.74,.95-7.4,2.15-10.98,3.57,.16,8.87,.4,21.75,.6,29.89H22.1v-7.41h-.18c-2.19-.1-4.39,.17-6.49,.8-2.23,.66-4.37,1.58-6.38,2.75-.13,.08-.12,.07,0,.2,.25,.3,.43,.65,.55,1.02,.1,.53-.16,1.06-.65,1.3-.39,.27-.89,.36-1.35,.24-.33-.12-.63-.32-.86-.58-.08-.11-.17,0-.26,.1-.28,.18-.58,.33-.89,.46-.61,.28-1.34,.09-1.73-.46-.4-.53-.4-1.27,0-1.8,.18-.19,.49-.33,.71-.54s.1-.13,0-.18c-.12-.18-.22-.38-.3-.58-.19-.59-.01-1.23,.46-1.64,.48-.34,1.11-.39,1.64-.13,.34,.14,.6,.62,.8,.92,0,0,.11,.11,.17,0l.53-.31c.07,0,0-.19,0-.26-.67-1.55-.8-2.64-.19-3.78,.37-.72,1.04-1.25,1.83-1.45,.48-.14,.99-.11,1.45,.1v.14c-.5,.53-.86,1.18-1.03,1.88-.12,.62-.09,1.25,.08,1.86,0,.11,.1,.14,.18,.12s.94-.35,1.2-.42c.1,0,0-.17,0-.26-.28-.99-.24-2.05,.12-3.01,.65-1.31,2.03-2.11,3.5-2.03,.24,0,.59,.24,.38,.38-1.37,.81-2.11,2.37-1.86,3.93,0,.03,.02,.07,.05,.09s.06,.03,.1,.02c.49-.14,1.02-.27,1.5-.43,.08,0,0-.15,.07-.24,0-1.21,.43-2.39,1.2-3.34,.86-.97,2.13-1.48,3.43-1.38,.25,.06,.47,.18,.65,.36,.05,.07,.05,.18,0,.25-1.27,.83-2.25,2.05-2.78,3.47,0,0,0,.12,.11,.11,.74,0,1.52-.15,2.27-.24,.11,0,.12,0,.13-.08,.28-.88,.87-1.62,1.67-2.1l.12-.1v-3.57h-.08c-.56-.2-1.15-.33-1.75-.39-4.23,.1-8.36,1.23-12.04,3.31,0,0-.17,.15-.14,.21,.47,1.08,.19,1.73-.43,2.13-.33,.21-.74,.27-1.12,.18s-.71-.33-.92-.66c-.03-.03-.07-.05-.11-.05s-.08,.02-.11,.05c-.42,.28-.91,.42-1.41,.41-.5-.02-.95-.33-1.14-.8-.14-.4-.11-.84,.09-1.22,.19-.38,.53-.67,.93-.8,.08,0,.07-.1,0-.15-.24-.27-.36-.63-.33-.99s.2-.69,.47-.93l.14-.11c.71-.42,1.63-.18,2.05,.52,.06,.1,.11,.21,.14,.32,0,.07,0,0,.11,0,.29-.05,.56-.14,.82-.29,.1,0,.2-.38,.2-.48,0-1.83,0-2.99,1.2-4.18,.54-.51,2.28-.93,2.72-.36,.02,.01,.02,.03,.02,.05s0,.04-.02,.05c-.39,.22-.71,.54-.94,.92-.51,.76-.72,1.68-.56,2.58,0,0,0,.17,0,.14,.53-.17,1.04-.36,1.53-.56v-.18c-.08-1.24,.3-2.47,1.06-3.47,.8-.88,2.79-1.76,3.77-.93,.08,.08,0,.19-.11,.25-.52,.26-.96,.64-1.31,1.11-.46,.58-.78,1.26-.94,1.99,0,.07,.1,.25,.17,.24,.43-.1,1.2-.19,1.67-.33,.23-.08,.17-.13,.2-.36,.16-1.93,1.66-3.47,3.6-3.68,.66-.13,1.35-.02,1.94,.3,.15,.1,.29,.22,.41,.36,.06,.06,.06,.15,0,.21-.71,.06-1.39,.29-1.99,.68-.68,.41-1.16,1.08-1.32,1.85,0,.08,0,.21,.13,.21,.56,0,1.26,0,1.81-.06,.07,0,.14-.05,.16-.12,.4-1.09,1.28-1.94,2.4-2.29,1.25-.45,2.66-.14,3.6,.8,.12,.15,.1,.2,0,.21-1,.18-1.94,.59-2.75,1.19-.11,.11-.22,.18,0,.19h11.32l-.17-17.58Zm9.36,47.86c-.9,.65-1.86,1.2-2.88,1.63l.13,.26c.11,.25,.15,.52,.13,.79,0,.41-.29,.76-.68,.87-.52,.19-1.11,.06-1.5-.33-.29,.36-.75,.52-1.2,.42-.36-.08-.66-.31-.84-.63-.06-.18-.1-.33-.12-.39-.41,0-.8,.08-1.2,.1v28.26c.44-.12,1.08-.35,1.82-.6s1.43-.57,2.29-.94c2.6-1.08,5.11-2.36,7.52-3.81,1.54-.98,3.01-2.06,4.4-3.23,3.57-2.93,6.69-6.36,9.27-10.19,2.47-3.72,4.49-7.72,6-11.91,1.26-3.57,1.97-7.32,2.09-11.1h-19.63v.67c-.08,4.09-2.18,7.88-5.6,10.15h0Zm25.5-20.49h-19.88v8.62h19.68c.07-2.53,.13-5.48,.19-8.64h.01Zm.18-8.54h-20.04v7.34h19.89c0-2.38,.08-4.88,.13-7.35h.01Zm.17-9.52H36.26v8.34h33.8c0-2.91,.1-5.75,.14-8.34h.01Zm0-2.78c-3.57-1.44-7.24-2.63-10.98-3.57-5.15-1.28-10.4-2.15-15.68-2.62-2.52-.21-4.8-.3-7.29-.33v8.17h33.97v-1.64Zm.16-9.79l-.22-.11c-3.58-1.43-7.25-2.62-10.98-3.57-5.14-1.26-10.36-2.12-15.64-2.58-2.59-.23-4.93-.31-7.54-.33h-.22c-2.6,0-4.94,.11-7.53,.33-5.29,.44-10.53,1.29-15.68,2.53-3.74,.95-7.4,2.15-10.98,3.57l-.22,.1s.06,3.57,.14,8.7h.07c3.58-1.43,7.25-2.62,10.98-3.57,5.15-1.26,10.4-2.12,15.68-2.58,2.59-.23,4.94-.37,7.54-.41h.17c2.61,0,4.94,.18,7.53,.41,5.28,.44,10.52,1.29,15.67,2.53,3.74,.95,7.41,2.14,10.98,3.57h.07c.1-5.15,.14-8.68,.14-8.68v.12Zm-18.37,65.79c-.56,.39-1.01,.91-1.32,1.51,0,0,0,.14-.11,.12l-.82-.25v-.11c.54-1.06,1.51-1.84,2.66-2.16,.06,0,0-.07,0-.11-.42-1.02-2.54-.93-3.6-.27-.96,.63-1.64,1.6-1.89,2.72v.15c-.29,.1-.59,.17-.89,.21-.05,0-.08-.05-.08-.1-.08-.51,.02-1.03,.26-1.49,.33-.57,.73-1.1,1.2-1.56,.03-.03,.05-.07,.05-.12s-.02-.09-.05-.12c-.61-.36-1.36-.36-1.97,0-.86,.45-1.51,1.22-1.82,2.13-.19,.71-.19,1.47,0,2.18v.11c-.3,.12-.53,.25-.83,.37h-.1c-.5-.94-.31-2.09,.46-2.82,0-.06,.1-.13,0-.18-.76-.12-1.53,.16-2.04,.74-.59,.7-.76,1.66-.44,2.51,.07,.35,.2,.68,.37,.99,0,0,.12,.08,0,.11l-.58,.44h-.07c-.24-.44-.64-.76-1.12-.91-.43-.1-.88,.03-1.2,.33-.54,.54-.54,1.41,0,1.95,.16,.15,.36,.27,.58,.35,0,0,.07,0,0,.07-.31,.21-.56,.48-.73,.81-.21,.53-.09,1.14,.32,1.55,.31,.27,.71,.39,1.12,.33,.6-.19,1.1-.62,1.37-1.19h.12c.25,.36,.61,.62,1.02,.76,.42,.14,.88,.05,1.2-.25,.52-.36,.71-1.02,.48-1.6-.19-.33-.46-.61-.78-.82,0,0,0-.13,.1-.2,1.55-1.25,3.41-2.08,5.38-2.38,1.34-.18,2.7,.04,3.92,.63,.48,.28,.92,.62,1.31,1.02,0,0,.19,.07,.24,0,.6-.55,.66-1.47,.13-2.08-.22-.26-.49-.48-.79-.63,.25-.6,.67-1.12,1.2-1.5,.36-.23,.74-.41,1.14-.55,.07,0,.07-.07,0-.17-.49-1.12-2.4-1.19-3.36-.57l-.05,.02ZM28.71,16.32c.92,.09,1.71,.69,2.03,1.55,0,0-.06,.11-.12,.11-.78,0-1.55,.07-2.31,.19-.48,.19-.92,.47-1.28,.83-.02,.02-.03,.04-.03,.07s.01,.05,.03,.07c.92,.18,1.75,.64,2.4,1.31,.74,.64,1.04,1.64,.78,2.57-.03,.1-.11,.18-.2,.23-.09,0-.18-.04-.24-.12-.81-.71-1.76-1.25-2.78-1.6-.88-.34-1.82-.51-2.77-.51-5.61,.14-11.12,1.53-16.12,4.09,0,0-.1,.13,0,.17,.28,.33,.41,.76,.35,1.19-.18,.56-.35,.61-.78,.93-.65,.51-1.6,.41-2.12-.23-.03-.02-.05-.05-.06-.08-.03-.02-.07-.02-.11,0-.29,.2-.61,.37-.95,.49-.6,.25-1.3,.03-1.64-.52-.2-.4-.24-.86-.1-1.28s.45-.77,.85-.97c.05-.05,.05-.12,0-.17h.07c-.37-.66-.13-1.49,.53-1.86,.6-.35,1.93-.57,2.29,.57,0,.03,.02,.05,.04,.06s.05,.02,.08,0c.3-.1,.6-.21,.89-.35,0,0,.1-.18,.07-.31-.37-1.47-.1-3.03,.76-4.29,1.26-1.42,2.75-2.06,4.32-1.43,.07,0,0,.14,0,.19-.62,.63-1.49,1.05-1.94,1.79-.47,.72-.73,1.56-.74,2.42h.16c.78-.26,1.77-.6,2.72-.89,0,0,.18,0,.18-.08-.02-.53,.01-1.05,.11-1.57,.23-1.44,1.19-2.67,2.54-3.25,.98-.41,2.08-.41,3.06,0,.06,0,.1,.15,0,.19-.68,.45-1.31,.95-1.89,1.51-.58,.62-.93,1.41-1,2.25,0,0,0,.07,0,.06,.85-.2,1.73-.36,2.6-.48,.07,0,.13-.06,.14-.13,.13-.8,.79-3.03,1.88-3.75,1.16-.82,2.62-1.08,3.99-.73,.31,.15,.57,.38,.77,.66,0,0,0,.17-.11,.19-.96,.32-1.84,.82-2.6,1.48-.47,.54-.77,1.21-.85,1.92,0,0,.08,.06,.13,.06h2.28c.06,0,.11-.03,.13-.08,.38-.9,1.06-1.65,1.93-2.11,.83-.37,1.75-.5,2.65-.39v.04Z"/>
    <g>
      <path d="M42.72,59.1c2.56-1.49,4.52-3.84,5.54-6.62,.34-.94,.52-1.94,.54-2.94V29.78H23.17s-.06,0-.06,.07v18.99c.06,3.44,1.61,6.68,4.24,8.89,2.43,2.07,5.5,3.22,8.69,3.24,2.35-.02,4.66-.67,6.68-1.87Zm-14.95-1.88c-2.52-2.13-3.99-5.24-4.04-8.54V30.42s0-.07,.06-.07h24.37s.05-.01,.07,0v18.97c-.01,.96-.19,1.91-.52,2.82-.96,2.7-2.83,4.98-5.3,6.44-1.92,1.17-4.12,1.8-6.37,1.82-3.05-.04-5.98-1.17-8.27-3.18Z"/>
      <g>
        <path d="M58.17,62.53c-.52,.04-1.01,.26-1.38,.62-.39,.3-.72,.68-.97,1.1,0,.07-.18,.3-.35,.26-.58-.1-1.16-.16-1.75-.18,0,0-.35-.08-.28-.39,.05-.55,.27-1.08,.61-1.51,.45-.57,1.03-1.02,1.7-1.31,.24-.12-.84-.44-1.2-.42-.55,.02-1.08,.22-1.5,.57-.88,.58-1.2,2.13-1.41,2.95-.03,.12-.12,.21-.23,.26-.7,.18-1.42,.27-2.15,.27-.13-.89,.02-1.8,.43-2.6,.33-.53,.75-1.01,1.24-1.41,.18-.15,.37-.28,.56-.41,.16-.11-.34-.25-.67-.23-.91,.1-1.74,.57-2.3,1.3-.72,1.09-1.08,2.36-1.06,3.66,0,0,0,.15-.14,.21s-.91,.17-1.32,.31-.82,.38-.95,.31c-.13-.07-.14-.32-.18-.52-.08-.47-.08-.94,0-1.41,.16-.83,.53-1.6,1.09-2.24,.17-.14-1.44-.26-2.28,1.19-.37,.56-.59,1.2-.64,1.87-.01,.6,.08,1.2,.28,1.77,0,.17-.08,.2-.08,.2l-.29,.15c-.54,.31-1.34,.67-1.8,.89-.19-.54-.22-.91-.74-1.27-.44-.26-.97-.31-1.45-.13-.43,.19-.71,.62-.71,1.08,.05,.47,.29,.9,.67,1.19l-.38,.33c-.44,.37-.52,1.02-.18,1.48l.07,.11c.41,.49,1.13,.57,1.64,.19,.25-.14,.45-.36,.55-.63,.1,.26,.31,1.05,1.09,1.19,.33,.1,.68,.04,.96-.15,.46-.34,.62-.95,.37-1.47-.12-.3-.32-.55-.58-.74,1.6-.97,3.32-1.75,5.12-2.3,1.63-.49,3.31-.74,5.01-.75,1.4-.05,2.79,.26,4.03,.91,.9,.58,1.71,1.29,2.4,2.12,.16-.07,.1-.51,.1-.61-.19-1.25-.83-2.38-1.81-3.18-.16-.14-.06-.19,0-.24,.6-.77,1.45-1.31,2.4-1.54,.07-.11-.47-.89-1.56-.89Z"/>
        <path d="M63.8,53.53h-.12c-.61-.01-1.22,.15-1.74,.48-.48,.31-.89,.72-1.2,1.19-.08,.11-.22,.15-.35,.11-.56-.24-1.7-.5-2.4-.69-.05-.04-.08-.09-.08-.15,.24-.58,.59-1.11,1.02-1.56,1.4-1.42,2.3-.98,2.15-1.19-.76-.88-2.07-1.03-3.02-.36-.91,.67-1.58,1.61-1.92,2.68-.05,.1-.1,.19-.17,.27-.06,.06-.14,.1-.23,.12h-2.12c-.38,0-.14-1.11,.48-2.07,.38-.57,.96-.99,1.62-1.19,.18-.08-.25-.44-1.31-.37-.92,.1-1.73,.62-2.22,1.39-.61,.66-1.01,1.49-1.13,2.38-.04,.25-.23,.46-.48,.52l-2.4,.51-.55,.13-.31,.42c-.44,.54-.93,1.06-1.44,1.54l-.47,.41,.72-.21c1.2-.37,2.49-.75,2.85-.85,2.03-.59,4.14-.9,6.26-.92,.95,.01,1.89,.1,2.82,.27,1.22,.21,2.38,.67,3.42,1.33,.64,.42,1.26,.88,1.83,1.38,.15,.16,.32,.29,.52,.39,.18,0,.16-.1,.18-.29,.18-1.1-.36-2.2-1.34-2.74,0,0-.34-.27-.25-.43,.58-.72,1.39-1.22,2.29-1.42,.17,0,.52,0,.46-.13s-.06-.8-1.37-.96Z"/>
        <path d="M21.15,37.05c-.2,.3-.36,.63-.48,.98,0,0-.8,0-1.62,.1s-1.86,.27-1.86,.27v-.08c0-.61,.15-1.21,.43-1.75,.59-.9,1.31-1.71,2.16-2.38l.12-.08q.16-.11,.16-.18c-.2-.07-.4-.1-.61-.08-1,.15-1.89,.69-2.48,1.5-.74,.95-1.1,2.15-1.02,3.35-.25,.08-2.28,.74-2.64,.82-.52-1.77,.18-3.67,1.71-4.69-1.22,0-2.35,.67-2.91,1.75-.37,1.14-.34,2.37,.1,3.49-.65,.2-2.4,.89-2.4,.89-.32-.64-.44-1.36-.35-2.07,.02-.94,.4-1.84,1.07-2.51-.82-.39-2.4,.69-2.7,2.29-.05,1.06,.2,2.12,.72,3.05-.44,.32-1.2,.82-1.46,1-.07-.08-.31-.93-.77-1.19-.36-.25-.84-.25-1.2,0-.34,.31-.46,.79-.32,1.23,.12,.32,.56,.69,.61,.92-.21,.17-.43,.31-.67,.43-.32,.16-.55,.45-.64,.8-.06,.28,.01,.57,.19,.8,.2,.24,.5,.38,.82,.37,.23,0,.46-.07,.66-.18,.23-.13,.91-.77,.98-.82,.25,.27,.47,.98,1.27,.95s1.34-.66,1.14-1.33c-.18-.44-.51-.8-.94-1.02,1.17-.73,2.4-1.38,3.67-1.94,2.85-1.28,5.91-2.02,9.03-2.2,.35,0,.78,0,1.13,.07v-3.45c-.35,.26-.65,.58-.9,.94Z"/>
        <path d="M53.25,75.3c.43-.48,.99-.83,1.61-1,.08,0-.28-.32-.28-.32-.29-.21-.64-.32-1-.31-.58,.01-1.15,.23-1.58,.62-.46,.44-.84,.94-1.13,1.5-.03,.01-.07,.01-.1,0-.51-.17-1.03-.3-1.56-.38v-.11c.07-.53,.29-1.02,.65-1.42,.37-.45,.83-.81,1.35-1.07,.44-.19,.7-.07,.64-.15s-.23-.44-1.14-.41c-.71,.07-1.37,.35-1.92,.8-.73,.65-1.22,1.52-1.41,2.48-.02,.04-.06,.08-.1,.11-.53,.11-1.03,.24-1.55,.37h-.08c-.15-.67-.11-1.36,.13-2,.29-.63,.73-1.18,1.29-1.58,0-.18-.53-.2-.58-.2-.83,.13-1.54,.64-1.94,1.37-.53,.93-.66,2.03-.36,3.05,0,.02,0,.05,0,.07-.46,.19-.92,.4-1.35,.64h-.13c-.27-.47-.44-1-.49-1.54-.09-.55,.08-1.11,.47-1.51-.79,.06-1.45,.63-1.61,1.41-.09,.61-.02,1.24,.2,1.82,.1,.28,.22,.54,.36,.8v.08s-.92,.7-1.08,.85c-.16,.14-.1,0-.12,0s-.44-.6-.44-.6c-.16-.22-.4-.36-.66-.4s-.54,.03-.75,.19c-.36,.37-.36,.95,0,1.32,.23,.19,.79,.55,.84,.58-.23,.17-.45,.36-.66,.56-.32,.42-.24,1.02,.18,1.35,.38,.26,.9,.19,1.2-.17,.2-.23,.47-.86,.72-.94s.22,.36,1.07,.91c.32,.18,.72,.12,.97-.14,.3-.33,.26-1.08-.86-1.58-.1,0-.3-.12-.18-.24,.28-.26,.57-.5,.88-.71l.42-.32c.94-.7,1.98-1.25,3.09-1.62,.85-.28,1.75-.43,2.65-.44,.97,.01,1.94,.2,2.84,.56,.65,.22,1.22,.64,1.63,1.19,.32,.39,.55-.13,.49-.51s-.17-.87-1.2-1.5c-.18-.12-.2-.19-.16-.36s.11-.35,.73-1.07h0Z"/>
        <path d="M24.31,26.62c-.49,0-.97,.1-1.41,.3-.92,.52-1.6,1.37-1.88,2.38l-1.52,.06-1.57,.11c0-.27,.05-.53,.12-.79,.14-.53,.4-1.02,.76-1.44,.62-.71,1.47-1.19,2.4-1.35h.22c-.3-.2-.66-.31-1.03-.3-2.03,.01-3.72,1.56-3.9,3.57l-.07,.43-1.2,.24c-.64,.12-1.27,.27-1.89,.48,.04-.76,.23-1.5,.56-2.18,.33-.64,.78-1.2,1.34-1.66,.14-.11,.29-.23,.44-.32-.19-.06-.4-.08-.6-.08-1.18,.01-2.24,.74-2.66,1.83-.35,.95-.51,1.96-.47,2.98-.59,.14-1.93,.66-2.48,.87-.17-.73-.17-1.48,0-2.2,.14-.63,.45-1.2,.9-1.67,.13-.13,.26-.25,.4-.36,0,0-.14-.08-.7,0-.98,.25-1.75,.99-2.04,1.95-.22,1-.3,2.02-.25,3.04-.34,.17-1.41,.66-1.62,.73-.05-.27-.15-.53-.29-.76-.18-.28-.5-.45-.84-.45-.2,0-.39,.06-.56,.14-.17,.09-.3,.24-.36,.43-.08,.24-.05,.5,.06,.73,.08,.14,.17,.27,.28,.39,.08,.1,.25,.33,.25,.33-.36,.1-.69,.26-.98,.49-.44,.3-.59,.88-.34,1.35,.15,.3,.47,.49,.82,.48,.56,0,1.09-.23,1.47-.63l.44,.66c.17,.26,.47,.42,.79,.41,.17,0,.34-.05,.49-.12,.34-.2,.54-.57,.53-.96-.02-.34-.16-.66-.4-.91l-.08-.12,.79-.42c1.26-.7,2.58-1.3,3.93-1.79,2.18-.76,4.44-1.29,6.74-1.56,.47-.07,.95-.1,1.43-.08,.59,.04,1.17,.17,1.73,.38v-2.38h.95c.62-.72,1.46-1.22,2.4-1.43l.65-.19c-.1-.09-.21-.16-.32-.23-.43-.24-.91-.37-1.4-.37Z"/>
        <path d="M38.72,62.14c.3,0,.52-.15,.73-.64,0,0,.16-.1,.18,0,.24,.38,.77,.71,1.13,.52,.13-.08,.23-.21,.27-.37s0-.31-.07-.44l-.18-.31c-.86,.33-1.75,.56-2.66,.7l.08,.21c.08,.21,.3,.35,.53,.32Z"/>
        <path d="M28.38,17.59c.57-.07,1.14-.11,1.71-.1-.2-.48-.68-.79-1.2-.79-.66-.1-1.33-.04-1.95,.18-1.12,.49-2.01,1.39-2.48,2.51-1.16-.07-2.32-.07-3.48,0,.12-.93,.47-1.82,1.01-2.58,.63-.73,1.47-1.25,2.4-1.51,.14-.04,.27-.11,.4-.19-.2-.19-.47-.38-1.44-.42-1.26,.01-2.44,.65-3.13,1.7-.57,.92-.91,1.96-.98,3.04-1.86,.33-3.99,.88-3.99,.88,.02-.75,.18-1.5,.47-2.19,.44-.87,1.12-1.6,1.97-2.11,.14-.08,.27-.18,.4-.27-.25-.1-.53-.14-.8-.11-.62,.01-1.23,.17-1.77,.46-1.14,.64-1.85,1.83-1.86,3.13v1.67c-1.43,.36-2.84,.8-4.22,1.31-.13-.95,.01-1.91,.41-2.79,.37-.82,.97-1.51,1.73-2,.37-.23,.38-.32,.38-.35s-.07-.07-.56-.07c-.73,.07-1.43,.36-1.99,.83-.68,.59-1.17,1.38-1.4,2.25-.19,1.01-.19,2.04,0,3.05,0,0-1.2,.58-1.68,.82-.1-.33-.26-.64-.48-.92-.38-.34-.94-.41-1.39-.15-.39,.18-.62,.59-.58,1.01,.04,.32,.18,.63,.38,.88-.34,.11-.65,.31-.9,.56-.31,.31-.44,.76-.34,1.19,.16,.39,.56,.63,.98,.57,.52-.12,1-.37,1.39-.73,.18,.2,.37,.39,.56,.58,.21,.15,.46,.24,.72,.24,.21,0,.41-.05,.6-.14,.37-.21,.57-.61,.53-1.02,0-.58-.62-.81-.59-1.02,2.82-1.57,5.85-2.74,9-3.48,2.16-.54,4.36-.86,6.58-.95,1.4-.16,2.81-.01,4.15,.42,1.11,.29,2.13,.85,2.96,1.63-.01-1.02-.6-1.94-1.52-2.38-.73-.45-1.55-.73-2.4-.81,.21-.35,.46-.67,.74-.96,.46-.44,1.04-.75,1.67-.88Z"/>
      </g>
      <path class="cls-10" d="M37.84,31.62h.11c.4-.03,.78,.22,.91,.6,.03,.1-.03,.2-.12,.23-.1,.05-.21,.02-.27-.08-.1-.19-.29-.32-.51-.35-.23,.02-.43,.17-.51,.38-.14,.27-.2,.56-.21,.86,0,.3,.05,.6,.17,.88,.09,.24,.33,.4,.59,.4,.41-.12,.68-.51,.65-.94v-.15h-.52s-.02,0-.03,0c-.12-.01-.21-.12-.2-.24,0-.09,.03-.19,.23-.19h.74c.24,0,.28,.18,.28,.34,0,.2-.01,.4-.05,.59-.07,.36-.28,.68-.57,.91-.18,.1-.38,.16-.58,.16-.37,0-.71-.22-.88-.56-.2-.37-.29-.78-.28-1.19,0-.41,.1-.82,.31-1.17,.16-.32,.49-.51,.85-.48h-.11Zm-11.48,0c.71,0,.94,.43,.94,.58,0,.13-.24,.31-.37,.15-.15-.17-.37-.27-.6-.26-.25-.03-.5,.13-.58,.37,0,0,0,0,0,.01-.04,.24,.12,.46,.36,.5,.36,.02,.72,.13,1.03,.31h-.01c.22,.16,.34,.42,.32,.69,0,.25-.09,.49-.26,.67-.26,.24-.6,.36-.95,.34-.41,.01-.8-.19-1.01-.54-.01-.03-.04-.24,.13-.3,.12-.03,.24,.01,.32,.1,.16,.15,.38,.24,.6,.24,.2,0,.41-.06,.57-.19,.12-.12,.15-.29,.09-.45-.16-.25-.45-.39-.74-.38-.25,0-.49-.09-.66-.26-.2-.2-.29-.48-.27-.76,.03-.26,.17-.49,.39-.63,.21-.14,.46-.21,.71-.2Zm14.43-.03c.13,.02,.24,.1,.31,.21l.03,.07,.93,2.75c.04,.09,.03,.19-.01,.27-.05,.06-.13,.1-.21,.1-.09,0-.17-.04-.21-.11l-.03-.06-.15-.48h-1.27l-.14,.49c-.05,.15-.15,.17-.27,.17-.07-.01-.13-.05-.17-.11-.03-.04-.05-.1-.05-.15v-.05s.9-2.81,.9-2.81c.04-.16,.18-.27,.34-.29Zm-11.48,.06c.13,.01,.23,.12,.22,.25-.01,.13-.12,.23-.25,.22h-.45v2.63c0,.13-.11,.24-.24,.24s-.24-.11-.24-.24v-2.63h-.48c-.13-.01-.23-.12-.22-.25,.01-.13,.12-.23,.25-.22h1.41Zm2.58,0c.14,0,.24,.11,.24,.24v1.66c.02,.35-.05,.7-.22,1.01-.2,.28-.54,.44-.88,.4-.34,.02-.67-.13-.88-.4-.18-.3-.26-.66-.24-1.01v-1.66c0-.13,.11-.24,.24-.24s.24,.11,.24,.24v1.82c-.01,.2,.04,.41,.14,.58,.12,.15,.3,.23,.49,.22,.19,.02,.37-.06,.48-.22,.1-.18,.15-.38,.13-.58v-1.82c0-.14,.11-.24,.25-.24Zm4.36-.02c.13,0,.23,.1,.23,.23s-.1,.23-.23,.23h-.44v2.63c0,.13-.11,.24-.24,.24-.13,0-.24-.11-.24-.24v-2.63h-.44c-.13,0-.23-.1-.23-.23s.11-.23,.23-.23h1.36Zm10.55,0c.13,0,.23,.1,.23,.23s-.1,.23-.23,.23h-.43v2.63c0,.13-.11,.24-.24,.24-.13,0-.24-.11-.24-.24v-2.63h-.45c-.13,0-.23-.1-.23-.23s.1-.23,.23-.23h1.36Zm-12.71,0c.13,0,.23,.1,.23,.23s-.11,.23-.23,.23h-.44v2.63c0,.14-.11,.24-.24,.24s-.24-.11-.24-.24v-2.63h-.44c-.13,0-.23-.1-.23-.23s.1-.23,.23-.23h1.36Zm9.49,.01c.28,0,.57,.07,.8,.23,.25,.19,.4,.48,.41,.79,.03,.28-.07,.57-.28,.76-.09,.1-.2,.18-.32,.24l-.12,.05-.08,.03,.61,.77c.05,.06,.08,.13,.08,.21,0,.12-.09,.2-.23,.2-.06,0-.13-.02-.17-.06l-.04-.05-.72-1h-.45v.89s0,.03,0,.04c0,.11-.09,.19-.19,.21h-.05s-.04,0-.04,0c-.11-.01-.19-.1-.2-.2v-.05s0-2.8,0-2.8c0-.07,.02-.13,.06-.19,.04-.04,.09-.07,.14-.07h.05s.73,0,.73,0Zm-2.77,.51l-.52,1.81h1.08l-.55-1.81Zm2.83-.06h-.57v1.26h.5s.04,0,.06,0c.38,.01,.7-.29,.71-.67,0-.16-.07-.32-.2-.42-.14-.12-.31-.19-.5-.18Z"/>
      <path class="cls-10" d="M35.93,42.17h0c.02,.33-.24,.62-.58,.64-.02,0-.05,0-.07,0-.12,0-.16-.19-.18-.46v-.31c0-.13,0-.25,.02-.38,0-.09,0-.18,.01-.27,0-.09,0-.21,0-.31-.01-.23,0-.45-.03-.68-.04-.27-.11-.54-.19-.8-.05-.17-.11-.31-.18-.48-.03-.07-.09-.16-.13-.23-.03-.07-.08-.13-.14-.18-.08-.07-.2-.11-.27-.19-.02-.03,0-.07,.03-.09,.32-.17,.7-.12,.97,.12,.42,.35,.68,.85,.72,1.4,.11,.74,.11,1.48,.01,2.22m10.77,4.99h0c-.13,.02-.26,.02-.39,0-.13-.02-.25-.1-.32-.21-.08-.09-.14-.2-.17-.32,0-.08,.07-.14,.13-.19,.2-.14,.36-.32,.49-.53,.1-.19,.16-.4,.16-.61,0-.04-.08-.06-.11-.03-.13,.13-.22,.32-.37,.42-.14,.1-.31,.14-.48,.14-.12-.01-.23-.06-.31-.15-.07-.1-.13-.21-.16-.33-.04-.1,.12-.18,.23-.2,.22-.02,.44-.08,.64-.19,.12-.07,.23-.18,.29-.32,.04-.11,.06-.22,.06-.33,0-.05,.03-.08-.02-.07-.12,.04-.2,.11-.31,.14-.19,.06-.4,.05-.58-.04-.18-.13-.33-.31-.44-.5-.02-.04,0-.11,.04-.12,.18-.04,.34-.24,.48-.48,.03-.05,.06-.1,.08-.16,.03-.07,.11-.14,.12-.18,.03-.14,.05-.29,.04-.44-.02-.12-.08-.24-.17-.32-.02-.03-.12-.03-.14,0-.08,.15-.03,.35-.12,.49-.1,.16-.23,.29-.38,.4-.07,.06-.18,.14-.27,.1-.14-.07-.25-.2-.28-.36-.02-.18,.02-.37,.11-.53,.17-.33,.37-.65,.6-.95,.17-.22,.35-.36,.5-.61,.11-.16,.19-.49,.05-.55-.14-.05-.23,.28-.36,.36-.5,.19-.96,.44-1.39,.75-.19,.26-.34,.55-.41,.87-.06,.17-.02,.43-.09,.59-.03,.06-.16,.12-.21,.08-.16-.15-.28-.33-.34-.54-.03-.14-.02-.29,.03-.43,.02-.06-.02-.11-.07-.08-.19,.11-.34,.28-.42,.49-.08,.28-.06,.59,.07,.85,.24,.4,.5,.78,.78,1.14,.2,.35,.47,.71,.65,1.05,.19,.28,.27,.61,.22,.95-.08,.34-.25,.66-.51,.9-.03,.02-.1,.06-.13,.03-.26-.25-.54-.48-.83-.7-.35-.23-.75-.38-1.15-.46-.51-.06-1.02-.06-1.53-.01-.53,.02-1.07,.09-1.61,.08-.44,.02-.87-.04-1.28-.17-.31-.12-.57-.34-.73-.63-.15-.31-.2-.65-.16-.99,.02-.28,.1-.54,.24-.79,.11-.22,.29-.39,.5-.51,.24-.13,.52-.17,.78-.11,.13,.06,.25,.14,.36,.23,.11,.09,.21,.19,.3,.29,.01,.02,.08,0,.09-.02,.04-.36-.01-.72-.15-1.06-.14-.26-.29-.5-.47-.74-.02-.06,.15-.05,.21-.06,.29-.02,.58,.07,.81,.24,.16,.11,.29,.25,.4,.42,.01,.02,.06,0,.06-.02,.03-.44-.12-.87-.41-1.2-.13-.19-.31-.34-.51-.45-.12-.04,.09-.14,.2-.14,.23-.02,.46,.01,.67,.1,.08,.04,.15,.09,.21,.15,.04,.04,.09,.08,.14,.11,.04,.02,.08-.05,.07-.09-.03-.13-.08-.25-.15-.36-.34-.33-.7-.65-1.08-.93-.03-.02-.1-.06-.12-.09-.1-.15-.18-.31-.24-.48-.02-.06-.12-.13-.16-.22-.03-.09-.02-.19,.03-.28,.11-.21,.22-.24,.45-.35,.18-.06,.36-.1,.54-.11,.06,0,.11,.06,.17,.04,.03,0,.05-.09-.04-.16-.22-.15-.48-.24-.75-.24-.36-.06-.72-.03-1.06,.08-.25,.14-.54,.22-.83,.24-.19,0-.38-.03-.55-.11-.12-.06-.21-.17-.24-.3,0-.22,.05-.44,.15-.63,.08-.14,.21-.25,.36-.31,.1-.05,.17-.09,.16-.16-.01-.07-.15-.04-.2-.02-.32,.07-.63,.19-.91,.36-.21,.19-.39,.4-.55,.63-.04,.04-.08,.08-.13,.1-.06,.02-.12,.01-.19,.03-.23,.09-.46,.2-.68,.31s-.4,.28-.62,.36c-.18,.06-.36,.08-.54,.09h-.02c-.37-.03-.84-.03-.93,.4-.02,.09,.02,.18,.1,.23,.06,.04,.13,.07,.2,.1l.22,.08c.06,.01,.1,.04,.14,.08v.02s.01,.02,.01,.02v.04c-.03,.07-.09,.11-.16,.11-.2,.05-.41,.02-.58-.07l-.04-.02c-.08-.05-.19-.03-.25,.04-.39,.32-.8,.62-1.22,.9-.05,.03-.09,.06-.12,.1-.02,.03-.04,.06-.05,.09,0,.03,0,.06,0,.09,.02,.1-.1,.14-.18,.16-.09,.02-.15,.1-.16,.19,0,.07,0,.14,.01,.21,.02,.14,.15,.23,.28,.21,.03,0,.05-.01,.08-.02,.11-.04,.21-.08,.32-.11,.06-.02,.12-.01,.17,.03,0,0,.01,.01,.02,.02v.02s0,.02,0,.02c0,.03,0,.06-.02,.09-.04,.07-.08,.14-.14,.2-.05,.07-.09,.18,0,.24,.15,.12,.37,.11,.5-.02,.07-.07,.12-.15,.16-.24,.04-.1,.11-.17,.21-.21,.18-.08,.37-.12,.57-.12h.01c.14,0,.28,.03,.4,.1,.03,.02,.06,.05,.08,.09v.03s.01,.03,.01,.03v.02h0c-.04,.14-.09,.27-.17,.39-.03,.08-.05,.19-.09,.29-.04,.11-.1,.22-.13,.3-.03,.08-.05,.09-.12,.15-.17,.15-.41,.29-.57,.44-.3,.28-.56,.6-.78,.95-.07,.11-.12,.23-.15,.36h0c-.06,.32-.12,.68-.48,.48-.34-.19-.67-.4-1-.63-.12-.09-.22-.2-.3-.32-.31-.46-.7-.05-.91,.28-.33,.52-.69,1.01-1.08,1.48-.06,.07-.11,.16-.15,.25-.05,.13-.12,.24-.22,.35-.11,.14-.16,.32-.15,.5,0,.31-.09,.62-.28,.87-.13,.14-.22,.33-.22,.53,0,.17,0,.35,.01,.52,0,.13,.06,.24,.2,.23,.03,0,.07-.02,.1-.03,.26-.1,.51-.24,.74-.41,.03-.03,.06-.05,.09-.08,.07-.07,.08-.18,.05-.27-.01-.02-.03-.05-.05-.07-.02-.01-.03-.03-.05-.05-.06-.04-.1-.09-.12-.15,0-.02,0-.03,0-.05,0-.06,0-.12,.01-.17,.02-.08,.03-.15,.04-.23,0-.09,.05-.18,.12-.23,.12-.1,.24-.19,.36-.29,.18-.14,.24-.38,.15-.59-.01-.04-.02-.08-.03-.12,0-.02,0-.05,0-.06,.02-.1,.06-.18,.12-.26,.08-.12,.16-.23,.24-.34,.11-.19,.29-.32,.5-.38,.27-.03,.54,.06,.73,.24,.21,.27,.36,.58,.42,.92,.07,.27,.19,.54,.33,.78,.1,.19,.32,.26,.51,.16,.03-.01,.05-.03,.08-.05l.03-.02s.03-.01,.04-.02c.08-.02,.16,.02,.2,.08,.1,.12,.21,.23,.32,.34,.14,.08,.02,.19-.09,.19h-.28c-.08,0-.16,.01-.24,.04-.56,.18-1.14,.27-1.73,.27-.04,0-.07,0-.11,.01-.07,.01-.13,.06-.16,.12-.01,.02-.02,.04-.03,.06-.02,.06-.04,.11-.06,.17-.05,.13-.05,.28,0,.41,.24,.8,.3,1.64,.18,2.47-.06,.3,.01,.61,.2,.84,.07,.09,.17,.15,.27,.18,.05,.01,.08,.03,.12,.06,.08,.09,.11,.2,.11,.31,.01,.16,.08,.32,.19,.44,.15,.19,.33,.34,.54,.45,.02,.01,.05,.02,.07,.03,.11,.05,.24,0,.3-.11h0c.12-.27,.19-.56,.18-.86,0-.14-.1-.25-.23-.28-.02,0-.03,0-.05-.01-.05,0-.1,.02-.13,.05h-.01s-.05,.03-.08,.04c-.01,0-.02,0-.04,0-.01,0-.03,0-.04,0-.01,0-.03,0-.03-.01-.01,0-.03,0-.04-.02-.07-.05-.13-.12-.16-.2-.07-.16-.08-.35-.03-.52,.01-.05,.02-.1,.03-.15,.02-.08,.02-.16,.01-.24-.01-.08-.03-.16-.06-.23-.06-.13-.08-.19-.19-.22l-.04-.02c-.05-.02-.1-.04-.14-.08-.01,0-.02-.01-.02-.02-.02-.03-.02-.08-.01-.12,.06-.39,.07-.78,.04-1.17,0-.13-.03-.26,.08-.36,.27-.23,.72-.05,1,.06,.37,.13,.75,.23,1.13,.29h.01c.63,.06,1.26-.11,1.77-.48,.05-.04,.05-.06,.11-.02,.2,.12,.33,.26,.54,.39,.46,.3,.97,.53,1.5,.69,.71,.07,1.44,.06,2.15-.02,.18,.01,.36,.05,.53,.11,.04,.01,.07,.05,.07,.1-.02,.26-.12,.52-.12,.78,.02,.14,.07,.28,.15,.4,.06,.12,.1,.29,.18,.4l.07,.14c.41,.52,.42,1.25,.02,1.77-.27,.26-.56,.5-.87,.71-.29,.22-.64,.36-1.01,.39-.24,.01-.48,.11-.65,.28-.2,.21-.44,.39-.69,.54-.1,.04-.19,.12-.22,.23-.12,.29-.22,.6-.27,.91-.04,.18,.1,.24,.25,.22,.27-.04,.53-.11,.78-.21,.14-.04,.21-.18,.17-.32,0-.02-.01-.04-.02-.05l-.08-.23s-.02-.05-.02-.07v-.06s.02-.05,.04-.07c.05-.06,.1-.1,.16-.14,.07-.05,.16-.07,.25-.07,.06,.01,.11,.03,.17,.04,.32,.11,.68-.02,.86-.31,.02-.03,.05-.07,.07-.11,.06-.11,.14-.2,.24-.27,.68-.44,1.41-.8,2.18-1.07,.07-.02,.12-.07,.15-.13,.01-.1,0-.19-.02-.28-.03-.27-.03-.54-.01-.81,0-.19,.07-.53,.32-.53,.1,.01,.19,.07,.24,.15,.24,.31,.57,.55,.94,.67,.11,.04,.22,.08,.33,.13,.29,.13,.5,.4,.54,.71,.03,.17,0,.35-.11,.49-.26,.34-.5,.7-.74,1.06-.12,.19-.27,.36-.46,.48-.28,.19-.55,.4-.82,.62-.21,.14-.38,.32-.51,.54-.15,.37-.27,.75-.38,1.13-.06,.22,.08,.27,.27,.23,.29-.07,.57-.19,.83-.34,.04-.02,.08-.05,.11-.08,.03-.05,.06-.1,.05-.16-.01-.1-.05-.2-.12-.27-.07-.09-.1-.22-.06-.33,0-.02,.02-.03,.02-.05,.04-.06,.1-.1,.17-.12,.21-.07,.42-.12,.63-.18,.28-.04,.54-.17,.74-.37,.04-.05,.06-.1,.08-.16v-.06c.26-.86,.84-1.59,1.62-2.03,.1-.05,.16-.15,.17-.27,.02-.11,0-.22-.03-.32l-.59-.91c-.17-.24-.28-.51-.32-.8,0-.31,.08-.61,.23-.88,.05-.08,.1-.16,.15-.24,.1-.23,.3-.31,.46-.52,.16-.2,.31-.41,.44-.63,.13-.29,.24-.59,.31-.9,.08-.24-.04-.49-.02-.74,.02-.09,.06-.17,.11-.24,.1-.15,.25-.26,.41-.32,.17-.04,.35-.03,.52,.03,.31,.09,.51,.21,.82,.28,.16,.03,.33,.02,.49-.03,.17-.05,.33-.14,.45-.26,.04-.05,.04-.14,0-.14"/>
    </g>
    <g>
      <path class="cls-7" d="M68.82,15.17c-2.72-1.04-5.5-1.94-8.31-2.69-.05-.01-.07-.08-.07-.12v.36c0,.05,.02,.12,.07,.12,2.81,.75,5.58,1.65,8.29,2.68,.12,.04,.12-.05,.12-.09l.02-.32s-.02,.09-.12,.06h0Zm.12-2.63c-1.95-.72-4.19-1.46-6.44-2.08-.03,0-.08,0-.08,.03l-.02,.35s.06-.02,.1-.02c2.25,.63,4.47,1.36,6.41,2.09,.03,.01,.04-.04,.04-.07l.02-.36s0,.07-.04,.06h0Zm-.12-2.83c-1.66-.61-4.05-1.44-6.22-2-.03,0-.08,0-.08,.04v.35s.06-.05,.09-.04c2.17,.55,4.53,1.38,6.19,1.99,.15,.05,.23,.03,.23-.1l.03-.31c-.01,.1-.09,.12-.23,.07h0Zm-9.8,2.4c-.53-.12-1.07-.25-1.62-.38-.06-.02-.11-.08-.1-.15v.36c0,.07,.04,.13,.1,.15,.56,.13,1.07,.26,1.6,.38,.14,.03,.16,0,.16-.05l.02-.36c0,.05-.03,.07-.16,.04h0Zm-6.32-1.3c-.49-.1-1.15-.18-1.74-.28v.31c.59,.1,1.23,.17,1.72,.27,.05,.01,.14-.03,.14-.08l.02-.27s-.08,.06-.13,.06h0Zm4.64-1.25c0-.14,0-.21,0-.36,0-.1-.17-.12-.2-.12-1.42-.31-2.81-.59-4.25-.84-.05,0-.08,0-.08,.05v.36c0-.06,.02-.06,.07-.05,1.43,.25,2.82,.54,4.25,.84,.03,0,.2,.02,.2,.11h0Zm-7.14,.86c-2.62-.4-4.93-.6-7.28-.83-.52-.12-.9-.58-.92-1.11v.36c.02,.54,.4,.99,.92,1.11,2.35,.22,4.64,.42,7.27,.82,.04,0,.12-.03,.12-.07l.02-.35s-.08,.07-.12,.06h0Zm.1-5.35c-2.03-.22-4.07-.59-6.1-.76-.13-.01-.32,.06-.32,.19v.36c0-.13,.19-.2,.32-.19,2.04,.16,4.07,.54,6.1,.76,.05,0,.14-.03,.14-.08v-.36s-.08,.08-.14,.08Zm-10.68,4.3c-2.42-.14-4.84-.14-7.25,0v.36c2.41-.14,4.83-.14,7.25,0,.58-.02,1.07-.44,1.17-1.01v-.36c-.11,.57-.59,.99-1.17,1.01h0Zm-6.03-2.39c1.78,.04,3.35,0,5.08,.12,.12,0,.23,.07,.23,.2v-.35c0-.13-.1-.2-.23-.21-1.72-.11-3.3-.08-5.08-.12-.51-.01-1.19-.41-1.18-.92v.36c0,.51,.67,.91,1.18,.92h0Zm6.92-2.47c.13-.02,.23-.14,.23-.27v-.36c0,.14-.1,.25-.23,.27-1.75-.05-4.3-.14-6.02-.07-.11,0-.18,.04-.18,.14l-.03,.35c0-.11,.1-.13,.2-.13,1.72-.06,4.27,.02,6.02,.07h0Zm-16.09,5.58l-1.81,.23v.36l1.81-.24s.05-.03,.05-.06t0,0v-.36s-.02,.06-.05,.06h0Zm6.92-.64l-1.8,.13c-.05-.46-.2-.91-.44-1.31-.29-.47-.66-.71-.98-.65l-3.65,.39v.36l3.65-.4c.32-.06,.7,.18,.98,.65,.24,.4,.38,.84,.44,1.31l1.8-.13s.12,0,.11-.04v-.36s-.07,.03-.11,.03h0Zm-.31-3.38v-.43c.03,.52-.28,1.01-.76,1.22,.09,.07,.18,.15,.25,.23,.33-.23,.52-.62,.5-1.02h0Zm-2.36-1.69l-4.28,.41-.03,.02v.39l.03-.02,4.28-.41c.16-.03,.31,.08,.34,.24,0,0,0,.02,0,.03v-.39c-.01-.16-.15-.28-.31-.27,0,0-.02,0-.03,0h0Zm-8.53,6.32c-2.07,.36-4.18,.78-6.28,1.24-.32,0-.61-.16-.78-.42-.23-.27-.38-.61-.4-.96v.32c.04,.36,.18,.69,.41,.96,.25,.29,.54,.5,.78,.44,2.1-.46,4.21-.84,6.28-1.2,.41-.1,.77-.32,1.03-.64,.23-.24,.36-.56,.37-.89v-.38c-.01,.33-.15,.65-.37,.89-.27,.32-.63,.55-1.04,.65h0Zm-.86-5.1c-.13-.07-.28-.1-.42-.08-1.15,.17-2.61,.45-3.72,.66-.18,.03-.33,.11-.46,.23-.1,.1-.15,.23-.16,.37v.38c0-.14,.06-.27,.16-.37,.13-.12,.29-.2,.46-.23,1.11-.21,2.58-.5,3.72-.66,.15-.03,.3,0,.42,.08,.14,.09,.22,.24,.2,.41v-.38c.02-.17-.06-.33-.2-.42h0ZM4.94,14.43c0,.06,0,.1-.05,.12-.39,.13-2.21,.82-2.21,.82v.35s1.82-.68,2.21-.81c.05-.02,.05-.07,.05-.12v-.36Zm7-5.05c0,.22-.06,.42-.2,.59-.14,.18-.32,.31-.53,.39l-6.24,1.91c-.05,.02-.06,.09-.06,.15v.35c0-.06,0-.14,.06-.15l6.25-1.91c.21-.07,.39-.21,.53-.39,.14-.17,.2-.38,.2-.59v-.34h0Zm-7.02,.14c-.07,.02-.14,.07-.14,.14v-.35c0-.07,.08-.12,.14-.14,1.51-.61,3.05-1.12,4.62-1.55,.14-.04,.27,.12,.28,.24l.03,.34c-.01-.11-.16-.28-.3-.24-1.57,.43-3.12,.95-4.64,1.57h0Z"/>
      <g class="cls-2">
        <path class="cls-9" d="M33.55,2.28c-.47,.02-1.11,.42-1.12,.89l-.03,2.49c0,.51,.67,.91,1.18,.92,1.78,.04,3.36,0,5.08,.12,.13,.01,.24,.08,.24,.21v.5c0,.09-.08,.17-.17,.17h-.02c-2.01,0-4.11-.09-6.14,.07-.11,0-.1-.02-.11,.08l-.09,1.48v.12c2.41-.14,4.83-.14,7.24,0,.58-.02,1.07-.44,1.17-1.01l.02-2.41c0-.49-.61-.86-1.01-.89-1.7-.11-3.64-.05-5.37-.09-.1-.01-.18-.1-.17-.19l.03-.56c0-.11,.07-.14,.18-.15,1.71-.06,4.27,.02,6.02,.07,.13-.02,.23-.13,.23-.27v-1.22c0-.06-.12-.26-.24-.26h0c-1.51-.07-3.1-.12-4.67-.12-.77,0-1.53,.01-2.27,.04Zm-10.94,.95h0v6.97s-.01,.09-.01,.09l1.81-.24s.05-.03,.05-.06v-2.01l3.65-.39c.32-.06,.7,.18,.98,.65,.24,.4,.39,.84,.44,1.31l1.8-.13s.12,0,.11-.04c-.05-.97-.48-1.88-1.19-2.55h0s0,0,0,0c.48-.2,.79-.67,.76-1.19,.02-.73,0-1.45-.08-2.18-.13-.54-.6-.93-1.15-.95-1.63,.03-5.16,.48-7.16,.73Zm1.71,3.11v-1.57l.03-.02,4.28-.41c.16-.03,.31,.08,.34,.24,0,0,0,.01,0,.02v.73c0,.31-.22,.58-.53,.63l-4.09,.4-.03-.03Zm19.29-3.77c-.78-.03-1.45,.52-1.59,1.28l-.04,4.6c.02,.54,.4,.99,.92,1.12,2.35,.22,4.66,.43,7.28,.83,.04,0,.12-.03,.12-.07v-1.6c-.02-.05-.06-.09-.11-.11-1.75-.22-4.06-.53-6.12-.75-.13-.03-.22-.14-.22-.27v-3.13c0-.13,.19-.2,.32-.19,2.03,.16,4.06,.54,6.1,.75,.05,0,.14-.03,.14-.08l.04-1.47c0-.06-.05-.11-.11-.12-2.26-.33-3.99-.52-6.74-.79h0Zm7.54,1.01c-.02,1.06-.17,5.61-.2,6.83v.1c.6,.1,1.26,.19,1.74,.28,.06,.01,.14-.03,.14-.08,0-.8,0-1.72-.02-2.45,0-.05,.02-.05,.08-.05,1.43,.26,2.82,.54,4.25,.84,.03,.01,.2,.03,.2,.12,0,.83-.03,1.54-.05,2.37,0,.07,.04,.13,.11,.15,.56,.13,1.09,.26,1.62,.38,.14,.03,.16,.01,.17-.05,.08-1.74,.11-4.52,.14-6.87,0-.03-.01-.07-.04-.08-.58-.13-1.14-.27-1.74-.41-.06-.01-.08,.08-.09,.14-.06,.86-.03,1.65-.1,2.51,0,.03,0,.05-.03,.04-1.43-.29-2.94-.62-4.36-.88-.04,0-.02-.08-.02-.12,0-.84,0-1.68,.01-2.51,0-.05-.05-.1-.1-.11-.56-.1-1.04-.17-1.61-.26-.05,0-.08,.05-.09,.1Zm-30.93,0c-2.09,.33-4.19,.77-6.31,1.23-.34,.1-.65,.29-.89,.55-.23,.2-.37,.49-.4,.79l.02,4.3c.01,.38,.16,.74,.41,1.02,.17,.27,.46,.42,.79,.42,2.1-.46,4.22-.88,6.29-1.24,.41-.1,.77-.32,1.03-.64,.23-.24,.36-.56,.38-.89l-.02-4.48c-.03-.3-.18-.58-.42-.76-.22-.2-.5-.31-.79-.31-.03,0-.06,0-.09,0Zm-5.61,6.34c-.09-.11-.14-.25-.12-.39v-2.79c0-.14,.06-.27,.15-.37,.13-.12,.29-.2,.46-.23,1.12-.21,2.58-.5,3.73-.66,.15-.03,.3,0,.43,.08,.14,.09,.22,.24,.21,.41l-.04,2.71c0,.16-.06,.31-.19,.4-.14,.1-.29,.16-.46,.18-1.1,.22-2.71,.52-3.84,.73-.03,0-.06,.01-.1,.01-.08,0-.17-.03-.24-.08ZM60.6,5.45s-.03,.05-.03,.07c-.06,2.33-.11,4.49-.14,6.83,0,.04,.02,.11,.07,.12,2.81,.76,5.59,1.65,8.31,2.69,.12,.04,.12-.05,.12-.08,0-.53,.03-1.07,0-1.6,0-.06-.04-.11-.1-.13-2.09-.81-4.23-1.5-6.4-2.09-.04-.01-.07-.05-.07-.1l.03-.7s.05-.03,.08-.02c2.25,.62,4.49,1.36,6.44,2.08,.03,.01,.03-.03,.03-.07,.02-.6,.04-1.2,0-1.8,0-.05-.03-.08-.07-.1-2-.73-4.09-1.41-6.31-2.01-.03-.01-.07-.04-.07-.07v-.74s.05-.05,.08-.04c2.17,.55,4.56,1.39,6.22,2,.14,.06,.23,.03,.23-.1,0-.61,.03-.65,0-1.25,0-.08-.01-.15-.08-.18-2.73-1.05-5.52-1.96-8.35-2.72h0Zm-50.28,.29c-2.51,.64-5.02,1.59-7.53,2.51-.07,.04-.12,.11-.12,.2v5.65l.02,1.27s1.82-.68,2.21-.81c.05-.02,.05-.07,.05-.12l-.04-2c0-.06,0-.14,.06-.16l6.25-1.93c.21-.08,.4-.21,.54-.39,.13-.17,.2-.38,.2-.6l-.07-2.63c-.03-.31-.2-.58-.46-.76-.24-.17-.52-.26-.81-.26-.1,0-.2,.01-.3,.03Zm-5.56,4.95v-1.38c0-.07,.08-.12,.14-.14,1.52-.61,3.06-1.13,4.64-1.55,.14-.04,.27,.12,.28,.24,.03,.32,.05,.64,.03,.96h0c0,.18-.25,.38-.42,.44l-4.57,1.49s-.02,0-.03,0c-.04,0-.08-.01-.08-.05Z"/>
      </g>
      <path class="cls-10" d="M10.37,6c.28-.06,.58-.01,.83,.14,.23,.12,.38,.35,.42,.6l.06,2.63c0,.19-.07,.37-.21,.5-.09,.1-.21,.18-.34,.23l-6.48,2.03,.03,2.23s-1.63,.59-1.73,.61v-3.13c0-.96-.03-2.6-.03-3.14v-.17c0-.06,.04-.07,.13-.11s2.08-.74,4.54-1.59c.73-.25,2.44-.77,2.79-.83Zm50.47-.26c.11,.02,2.55,.71,3.72,1.09,1.17,.38,2.36,.79,3.52,1.22l.04,.02,.26,.09,.38,.14c0,.15,0,.47,0,.62,0,.09,0,.23,0,.35v.21h-.02l-.44-.16-.31-.12h-.04c-.76-.28-1.49-.53-2.18-.76-.7-.23-1.35-.43-1.97-.6h-.01s-.02,0-.02,0l-.54-.15-.56-.16-.48-.13v1.34l.3,.08,.21,.06,.36,.11,.37,.1c.79,.23,1.58,.47,2.37,.72,.79,.25,1.57,.51,2.33,.78l.18,.06,.41,.14v.18c0,.16-.02,1.19-.02,1.19h-.02s-.4-.13-.4-.13l-.28-.09c-.8-.28-1.65-.57-2.52-.84-.87-.28-1.76-.54-2.65-.79l-.7-.2v.66s-.02,.64-.02,.64h0s.28,.1,.28,.1l.54,.16,.53,.16,.43,.13c.76,.23,1.5,.47,2.21,.71,.71,.24,1.45,.46,2.09,.71l.07,.02,.07,.03,.12,.05,.23,.08c.02,.42,0,.84-.03,1.26h-.01l-.4-.14-.08-.03-.08-.03c-1.29-.47-2.57-.86-3.73-1.23-1.15-.37-2.56-.81-3.62-1.09v-.03c0-.57,.02-1.65,.05-2.67,.02-1.01,.06-3.77,.07-3.85h0Zm-9.44-1.92c.1,.01,.31,.05,.4,.06,.1,.01,.2,.03,.29,.05l.24,.04c.08,.01,.24,.04,.32,.05v2s-.02,.76-.02,.76l.1,.02c.13,.02,.25,.04,.38,.07l.38,.07,.15,.03c.52,.1,1.04,.21,1.56,.31l1.51,.31,.4,.08,.24,.05,.32,.07h.01v-.27s0-.15,0-.15c.02-.22,.03-.44,.04-.65s.02-.43,.02-.63v-.55s0-.44,0-.44c.16,.03,.49,.11,.67,.15,.18,.04,.36,.08,.53,.13h.06s.01,0,.01,0v.33c-.01,.95-.02,1.93-.04,2.86s-.03,1.81-.06,2.58v.57s-.01,0-.01,0l-.39-.09-.25-.06-.28-.06-.41-.1v-.28s.01-.49,.01-.49c0-.14,0-.28,.01-.42,0-.14,0-.29,0-.44v-.39s0-.08,0-.14v-.19c0-.06,0-.11,0-.14h-.02l-.27-.06-.26-.06-.1-.02-.1-.02c-.8-.16-1.67-.34-2.4-.48-.72-.15-1.31-.26-1.55-.3h-.05s-.05-.02-.05-.02c-.05-.01-.17-.04-.21-.04,0,.04,0,.11,0,.18v.47c0,.21,0,.44-.01,.63,0,.2,0,.36-.01,.43v.04s0,.37,0,.37v.5h-.03c-.14-.02-.38-.06-.5-.08l-.33-.05-.19-.03c-.06-.01-.26-.05-.33-.06v-.13c0-.21,0-.51,.01-.71,0-.24,.02-.51,.03-.79,0-.17,.01-.35,.02-.53,0-.19,.02-.37,.02-.57,.02-.66,.04-1.34,.06-1.94s.03-1.14,.05-1.52v-.31Zm-31.27,.08c.49-.09,.96,.23,1.05,.72,0,.31,.03,4.14,.03,4.44-.06,.59-.48,1.08-1.05,1.23-.58,.11-5.68,1.11-6.14,1.21-.46,.09-1.05-.5-1.05-.99v-.36s0-.09,0-.14v-.67c0-.06,0-.13,0-.19v-.4c0-.07,0-.14,0-.21v-.63c0-.07,0-.14,0-.2v-.39c0-.06,0-.12,0-.18v-.62s0-.08,0-.12v-.29c0-.49,.53-.88,.99-1,.45-.11,5.82-1.14,6.17-1.21Zm-10.54,3.45h-.08s-1.45,.41-2.24,.68c-.78,.27-2.75,1.02-2.75,1.02,0,0,.03,1.91,.03,1.96l4.98-1.6c.15-.05,.28-.13,.39-.24,.12-.11,.2-.26,.21-.42,0-.18-.03-.74-.05-.92-.02-.12-.07-.23-.16-.32-.08-.09-.21-.15-.33-.15Zm10.17-1.55c0-.38-.16-.71-.74-.62-.74,.12-3.15,.55-3.95,.71-.66,.13-.92,.38-.92,.95v2.82c0,.4,.25,.7,.67,.63s3.95-.75,4.35-.84c.37-.08,.62-.41,.6-.79,0-.37-.02-2.65-.02-2.85Zm23.79-3.02h.13c.39,.04,1.25,.13,2.34,.25,1.41,.16,3.17,.35,4.2,.5v1.27c-.77-.1-5.56-.75-6.12-.79-.13,0-.25,.04-.36,.12-.09,.08-.14,.2-.12,.32v3.49c0,.05,.02,.1,.05,.14,.03,.04,.08,.06,.13,.07,.85,.08,1.69,.19,2.58,.3,.9,.11,1.73,.2,2.56,.31h.05s.05,0,.05,0l.42,.06,.56,.08v1.21s-.49-.07-.49-.07c-1.08-.15-2.07-.25-3.13-.36-1.05-.11-2.08-.2-3.04-.29h-.07s-.07,0-.07,0c-.1,0-.19-.02-.29-.04-.18-.04-.33-.12-.46-.25-.08-.08-.14-.17-.18-.27-.04-.11-.06-.23-.06-.35v-2.35s.01-.06,.01-.06c0-.14,0-.54,0-.96v-.32c0-.42,0-.8,.02-.91,.05-.31,.22-.59,.48-.77,.26-.23,.59-.34,.94-.32h-.13Zm-13.89-.06h.06c.69,.04,.84,.4,.88,.77,.09,.76,.12,1.53,.08,2.3-.1,.41-.36,.77-.72,.98,.4,.34,.73,.76,.97,1.23,.19,.38,.3,.79,.33,1.22l-1.51,.09c-.09-.44-.25-.86-.46-1.25-.21-.46-.68-.75-1.19-.72-.25,.03-.87,.09-1.54,.17l-.37,.04c-.99,.1-1.98,.21-1.98,.21,0,0,0,.15,0,.36v.44c0,.42,0,.9,0,1.13v.14s-.7,.1-.7,.1l-.7,.09V3.4s6.22-.71,6.91-.67h-.06Zm6.33-.21c.39,0,.79,0,1.19,0,.42,0,.84,.02,1.23,.03h.13c.7,.02,1.16,.03,1.86,.07v1.15c-.4,0-.93-.03-1.38-.02h-.58c-.4,0-.84,0-1.28,0h-.38c-.88,0-1.71-.01-2.13-.01h-.25s-.02,0-.02,0c-.19,.01-.27,.05-.31,.13-.03,.19-.04,.38-.03,.57v.24c0,.08-.01,.16,0,.25,0,.08,.02,.15,.07,.22,.03,.03,.06,.05,.1,.06,0,0,.14,0,.33,0h.55c.56,0,1.23,0,1.43,0,.55,0,1.13,0,1.7,.02,.57,0,1.13,.02,1.65,.06,.16,.03,.31,.11,.42,.23l.07,.07c.09,.09,.15,.21,.17,.34v1.27s-.03,1.26-.03,1.26c-.03,.18-.13,.34-.28,.44-.15,.12-.33,.2-.52,.21l-.82-.02-.72-.03c-.35-.01-.68-.03-1.03-.04-.36-.01-.72-.02-1.16-.02s-.93,0-1.46,.02c-.53,.01-1.22,.04-1.85,.07l.05-1.15c.37-.02,.88-.05,1.32-.06s.92-.02,1.42-.02h1.72s.73,.01,.73,.01c.23,0,.82,.01,.83,.01,.22,0,.32-.03,.37-.11,.05-.13,.07-.28,.05-.42v-.16s.01-.15,.01-.15c.02-.14,.01-.27-.01-.4-.03-.1-.1-.17-.27-.19-.59-.04-1.2-.06-1.81-.07s-1.22-.02-1.8-.02h-.85c-.29-.01-.59-.02-.88-.02-.2-.01-.39-.08-.55-.19-.14-.07-.24-.21-.26-.36v-1.34s.03-1.33,.03-1.33c.03-.15,.13-.28,.27-.36,.15-.11,.33-.19,.52-.21h.08c.21,0,.76,0,1.45,0h.92Zm-7.34,1.58l-4.48,.45v1s0,1,0,1l2.16-.2,2.15-.19c.22-.02,.42-.11,.58-.26,.15-.15,.23-.36,.22-.57v-.73c.01-.13-.04-.27-.14-.36-.15-.09-.32-.14-.49-.13Z"/>
    </g>
  </g>
  <text class="cls-3" transform="translate(110.62 68.08)"><tspan class="cls-12" x="0" y="0">D</tspan><tspan class="cls-11" x="38.64" y="0">w</tspan><tspan class="cls-4" x="82.47" y="0">a</tspan><tspan x="111.32" y="0">aS</tspan></text>
</svg>